<?xml version="1.0" encoding="UTF-8"?>
<svg width="700pt" height="700pt" version="1.1" viewBox="0 0 700 700" xmlns="http://www.w3.org/2000/svg">
 <g>
  <path d="m542.5 35h-315c-13.918 0.015625-27.266 5.5508-37.105 15.395-9.8438 9.8398-15.379 23.188-15.395 37.105v315c0.015625 13.918 5.5508 27.266 15.395 37.105 9.8398 9.8438 23.188 15.379 37.105 15.395h315c13.918-0.015625 27.266-5.5508 37.105-15.395 9.8438-9.8398 15.379-23.188 15.395-37.105v-315c-0.015625-13.918-5.5508-27.266-15.395-37.105-9.8398-9.8438-23.188-15.379-37.105-15.395zm17.5 367.5c-0.003906 4.6406-1.8477 9.0898-5.1289 12.371s-7.7305 5.125-12.371 5.1289h-315c-4.6406-0.003906-9.0898-1.8477-12.371-5.1289s-5.125-7.7305-5.1289-12.371v-315c0.003906-4.6406 1.8477-9.0898 5.1289-12.371s7.7305-5.125 12.371-5.1289h315c4.6406 0.003906 9.0898 1.8477 12.371 5.1289s5.125 7.7305 5.1289 12.371z"/>
  <path d="m157.5 525h350c6.2539 0 12.031-3.3359 15.156-8.75s3.125-12.086 0-17.5-8.9023-8.75-15.156-8.75h-350c-4.6406-0.003906-9.0898-1.8477-12.371-5.1289s-5.125-7.7305-5.1289-12.371v-350c0-6.2539-3.3359-12.031-8.75-15.156s-12.086-3.125-17.5 0-8.75 8.9023-8.75 15.156v350c0.015625 13.918 5.5508 27.266 15.395 37.105 9.8398 9.8438 23.188 15.379 37.105 15.395z"/>
  <path d="m486.57 122.85-150 29.984c-3.9648 0.79297-7.5352 2.9375-10.098 6.0625-2.5664 3.1289-3.9648 7.0508-3.9648 11.094v104.39c-4.0625-1.1875-8.2695-1.8203-12.5-1.8828-12.602 0-24.684 5.0039-33.59 13.914-8.9102 8.9062-13.914 20.988-13.914 33.586-0.003906 12.598 5 24.68 13.906 33.59 8.9102 8.9102 20.992 13.914 33.59 13.914 12.598 0.003906 24.68-5 33.59-13.906 8.9102-8.9062 13.914-20.988 13.918-33.586v-135.66l115-22.996v83.039c-4.0625-1.1875-8.2695-1.8203-12.504-1.8828-12.598 0-24.68 5.0078-33.59 13.918-8.9062 8.9062-13.91 20.992-13.91 33.59 0 12.602 5.0078 24.684 13.918 33.59 8.9102 8.9062 20.996 13.91 33.594 13.91 12.598-0.003906 24.68-5.0117 33.586-13.922 8.9102-8.9141 13.91-20.996 13.906-33.598v-150c-0.003906-5.2422-2.3555-10.207-6.4102-13.527-4.0547-3.3242-9.3867-4.6523-14.523-3.6211zm-176.56 209.65c-5.0586 0-9.6211-3.0469-11.555-7.7188-1.9336-4.6719-0.86328-10.051 2.7148-13.625 3.5742-3.5781 8.9531-4.6445 13.625-2.707 4.6719 1.9375 7.7148 6.5 7.7148 11.559-0.011718 6.8984-5.6016 12.488-12.5 12.492zm150-29.992h-0.003906c-5.0547 0-9.6133-3.0469-11.547-7.7188-1.9375-4.668-0.86719-10.047 2.707-13.621 3.5742-3.5781 8.9492-4.6484 13.621-2.7148s7.7188 6.4883 7.7227 11.543c0 6.9062-5.5977 12.504-12.504 12.512z"/>
 </g>
</svg>
